<svg width="16" height="16" viewBox="0 0 16 16" fill="none" xmlns="http://www.w3.org/2000/svg">
<path d="M15.5563 0.190892C15.47 0.116836 15.3687 0.0622406 15.2594 0.0308202C15.1501 -0.000600142 15.0354 -0.00810764 14.9229 0.00880881L4.63125 1.59214C4.44383 1.62058 4.27284 1.71532 4.14935 1.85914C4.02586 2.00297 3.95809 2.18633 3.95833 2.37589V10.5696C3.58844 10.389 3.18249 10.2942 2.77083 10.2926C2.22282 10.2926 1.6871 10.4551 1.23144 10.7595C0.775781 11.064 0.420636 11.4967 0.210918 12.003C0.00120056 12.5093 -0.0536712 13.0665 0.053242 13.604C0.160155 14.1414 0.424052 14.6352 0.81156 15.0227C1.19907 15.4102 1.69278 15.6741 2.23027 15.781C2.76776 15.8879 3.32488 15.833 3.83119 15.6233C4.33749 15.4136 4.77024 15.0584 5.0747 14.6028C5.37916 14.1471 5.54167 13.6114 5.54167 13.0634V7.01506L14.25 5.67714V8.98631C13.8801 8.80564 13.4742 8.71091 13.0625 8.70923C12.5145 8.70923 11.9788 8.87173 11.5231 9.1762C11.0674 9.48066 10.7123 9.9134 10.5026 10.4197C10.2929 10.926 10.238 11.4831 10.3449 12.0206C10.4518 12.5581 10.7157 13.0518 11.1032 13.4393C11.4907 13.8268 11.9844 14.0907 12.5219 14.1977C13.0594 14.3046 13.6165 14.2497 14.1229 14.04C14.6292 13.8303 15.0619 13.4751 15.3664 13.0195C15.6708 12.5638 15.8333 12.0281 15.8333 11.4801V0.792559C15.8333 0.67821 15.8086 0.565217 15.7607 0.461352C15.7129 0.357488 15.6431 0.265219 15.5563 0.190892ZM2.77083 14.2509C2.53597 14.2509 2.30638 14.1812 2.11109 14.0508C1.91581 13.9203 1.76361 13.7348 1.67373 13.5178C1.58385 13.3008 1.56033 13.0621 1.60615 12.8317C1.65197 12.6014 1.76507 12.3898 1.93115 12.2237C2.09722 12.0576 2.30881 11.9445 2.53916 11.8987C2.76952 11.8529 3.00828 11.8764 3.22527 11.9663C3.44226 12.0562 3.62772 12.2084 3.7582 12.4037C3.88869 12.5989 3.95833 12.8285 3.95833 13.0634C3.95833 13.3783 3.83322 13.6804 3.61052 13.9031C3.38782 14.1258 3.08578 14.2509 2.77083 14.2509ZM13.0625 12.6676C12.8276 12.6676 12.598 12.5979 12.4028 12.4674C12.2075 12.3369 12.0553 12.1515 11.9654 11.9345C11.8755 11.7175 11.852 11.4787 11.8978 11.2484C11.9436 11.018 12.0567 10.8064 12.2228 10.6404C12.3889 10.4743 12.6005 10.3612 12.8308 10.3154C13.0612 10.2696 13.2999 10.2931 13.5169 10.383C13.7339 10.4728 13.9194 10.625 14.0499 10.8203C14.1804 11.0156 14.25 11.2452 14.25 11.4801C14.25 11.795 14.1249 12.097 13.9022 12.3197C13.6795 12.5424 13.3774 12.6676 13.0625 12.6676ZM14.25 4.07006L5.54167 5.40798V3.03298L14.25 1.71881V4.07006Z" fill="#D3D0D0"/>
</svg>
