<svg width="21" height="21" viewBox="0 0 21 21" fill="none" xmlns="http://www.w3.org/2000/svg">
<path d="M8.125 8.125C8.125 8.75489 8.37522 9.35898 8.82062 9.80438C9.26602 10.2498 9.87011 10.5 10.5 10.5C11.1299 10.5 11.734 10.2498 12.1794 9.80438C12.6248 9.35898 12.875 8.75489 12.875 8.125C12.875 7.49511 12.6248 6.89102 12.1794 6.44562C11.734 6.00022 11.1299 5.75 10.5 5.75C9.87011 5.75 9.26602 6.00022 8.82062 6.44562C8.37522 6.89102 8.125 7.49511 8.125 8.125Z" stroke="#D3D0D0" stroke-width="1.5" stroke-linecap="round" stroke-linejoin="round"/>
<path d="M8.125 12.875C8.125 13.5049 8.37522 14.109 8.82062 14.5544C9.26602 14.9998 9.87011 15.25 10.5 15.25C11.1299 15.25 11.734 14.9998 12.1794 14.5544C12.6248 14.109 12.875 13.5049 12.875 12.875C12.875 12.2451 12.6248 11.641 12.1794 11.1956C11.734 10.7502 11.1299 10.5 10.5 10.5C9.87011 10.5 9.26602 10.7502 8.82062 11.1956C8.37522 11.641 8.125 12.2451 8.125 12.875Z" stroke="#D3D0D0" stroke-width="1.5" stroke-linecap="round" stroke-linejoin="round"/>
<path d="M1 10.5C1 13.0196 2.00089 15.4359 3.78249 17.2175C5.56408 18.9991 7.98044 20 10.5 20C13.0196 20 15.4359 18.9991 17.2175 17.2175C18.9991 15.4359 20 13.0196 20 10.5C20 7.98044 18.9991 5.56408 17.2175 3.78249C15.4359 2.00089 13.0196 1 10.5 1C7.98044 1 5.56408 2.00089 3.78249 3.78249C2.00089 5.56408 1 7.98044 1 10.5Z" stroke="#D3D0D0" stroke-width="1.5" stroke-linecap="round" stroke-linejoin="round"/>
</svg>
