<svg width="21" height="19" viewBox="0 0 21 19" fill="none" xmlns="http://www.w3.org/2000/svg">
<path d="M2.334 18.9995H18.666C20.2196 18.9995 21 17.9744 21 15.943V3.05699C21 1.02563 20.2196 1.82597e-07 18.666 1.82597e-07H2.334C0.787875 -0.000497213 0 1.01518 0 3.05699V15.9435C0 17.9749 0.787875 18.9995 2.334 18.9995ZM2.3565 17.4128C1.61325 17.4128 1.197 16.8806 1.197 15.855V14.4255H3.28575C4.38562 14.4255 5.0325 13.5675 5.0325 12.1081V6.88196C5.0325 5.4226 4.38562 4.56509 3.28575 4.56509H1.197V3.13508C1.197 2.1194 1.61325 1.58719 2.3565 1.58719H9.879V4.90979C8.2215 5.26493 6.97275 7.16796 6.97275 9.49478C6.97275 11.8216 8.2215 13.7246 9.879 14.0897V17.4123L2.3565 17.4128ZM13.9826 9.49527C13.9676 7.17841 12.7414 5.30472 11.0764 4.92023V1.58769H18.6435C19.3792 1.58769 19.803 2.1199 19.803 3.13558V4.56509H17.7142C16.614 4.56509 15.9675 5.4231 15.9675 6.88246V12.1081C15.9675 13.5675 16.614 14.425 17.7142 14.425H19.803V15.855C19.803 16.8801 19.3792 17.4128 18.6435 17.4128H11.076V14.0892C12.7485 13.7142 14.0047 11.8211 13.9826 9.49428M17.7364 12.8368C17.3722 12.8368 17.1641 12.5607 17.1641 12.0778V6.91131C17.1641 6.42834 17.3722 6.15228 17.7364 6.15228H19.803V12.8373L17.7364 12.8368ZM3.26363 6.15228C3.62812 6.15228 3.83625 6.42834 3.83625 6.91131V12.0782C3.83625 12.5607 3.62812 12.8373 3.26363 12.8373H1.19738V6.15228H3.26363ZM8.05087 9.48483C8.04919 8.77018 8.22858 8.07551 8.56023 7.5123C8.89189 6.94909 9.35659 6.55 9.87975 6.37909V12.6105C8.83913 12.2553 8.05087 10.984 8.05087 9.48483ZM12.9053 9.48483C12.8903 10.9835 12.117 12.2553 11.0764 12.6105V6.38904C12.1245 6.74368 12.9124 7.99563 12.9053 9.48483Z" fill="#D3D0D0"/>
</svg>
