<svg width="34" height="34" viewBox="0 0 34 34" fill="none" xmlns="http://www.w3.org/2000/svg">
<path d="M31.97 33.308L19.446 20.784C18.446 21.636 17.296 22.2953 15.996 22.762C14.696 23.2287 13.3893 23.462 12.076 23.462C8.8733 23.462 6.16263 22.3533 3.94397 20.136C1.7253 17.9173 0.615967 15.2073 0.615967 12.006C0.615967 8.80466 1.72397 6.09333 3.93997 3.87199C6.1573 1.64933 8.86663 0.537994 12.068 0.537994C15.2706 0.537994 17.9826 1.64733 20.204 3.86599C22.4253 6.08466 23.536 8.79599 23.536 12C23.536 13.3893 23.29 14.734 22.798 16.034C22.3046 17.334 21.658 18.446 20.858 19.37L33.382 31.892L31.968 33.308H31.97ZM12.076 21.46C14.7293 21.46 16.97 20.5467 18.798 18.72C20.6246 16.8933 21.538 14.6527 21.538 11.998C21.538 9.34466 20.6246 7.10466 18.798 5.27799C16.9713 3.45133 14.7313 2.53799 12.078 2.53799C9.42463 2.53799 7.18397 3.45133 5.35597 5.27799C3.5293 7.10466 2.61597 9.34466 2.61597 11.998C2.61597 14.6513 3.5293 16.8913 5.35597 18.718C7.18263 20.5447 9.42263 21.46 12.076 21.46Z" fill="#D3D0D0"/>
</svg>
